<?xml version="1.0" encoding="UTF-8" standalone="no"?>
<!-- Created with Inkscape (http://www.inkscape.org/) -->

<svg
   xmlns:dc="http://purl.org/dc/elements/1.1/"
   xmlns:cc="http://creativecommons.org/ns#"
   xmlns:rdf="http://www.w3.org/1999/02/22-rdf-syntax-ns#"
   xmlns:svg="http://www.w3.org/2000/svg"
   xmlns="http://www.w3.org/2000/svg"
   xmlns:sodipodi="http://sodipodi.sourceforge.net/DTD/sodipodi-0.dtd"
   xmlns:inkscape="http://www.inkscape.org/namespaces/inkscape"
   version="1.1"
   id="svg4485"
   xml:space="preserve"
   width="100.25006mm"
   height="59.047817mm"
   viewBox="0 0 378.89787 223.17285"
   sodipodi:docname="betabots_FINAL_INKSCAPE.svg"
   inkscape:export-filename="C:\Users\johnc\Documents\GitHub\BetaBots\BetaBots_Logo[white].png"
   inkscape:export-xdpi="96"
   inkscape:export-ydpi="96"
   inkscape:version="0.92.0 r15299"><metadata
     id="metadata4491"><rdf:RDF><cc:Work
         rdf:about=""><dc:format>image/svg+xml</dc:format><dc:type
           rdf:resource="http://purl.org/dc/dcmitype/StillImage" /><dc:title></dc:title></cc:Work></rdf:RDF></metadata><defs
     id="defs4489"><clipPath
       clipPathUnits="userSpaceOnUse"
       id="clipPath4501"><path
         d="M 0,612 H 792 V 0 H 0 Z"
         id="path4499"
         inkscape:connector-curvature="0" /></clipPath></defs><sodipodi:namedview
     pagecolor="#ffffff"
     bordercolor="#666666"
     borderopacity="1"
     objecttolerance="10"
     gridtolerance="10"
     guidetolerance="10"
     inkscape:pageopacity="0"
     inkscape:pageshadow="2"
     inkscape:window-width="1600"
     inkscape:window-height="1137"
     id="namedview4487"
     showgrid="false"
     inkscape:zoom="1.4999235"
     inkscape:cx="203.02303"
     inkscape:cy="30.828607"
     inkscape:window-x="1592"
     inkscape:window-y="-8"
     inkscape:window-maximized="1"
     inkscape:current-layer="g4493"
     units="mm"
     fit-margin-top="0"
     fit-margin-left="0"
     fit-margin-right="0"
     fit-margin-bottom="0" /><g
     id="g4493"
     inkscape:groupmode="layer"
     inkscape:label="betabots_FINAL"
     transform="matrix(1.3333333,0,0,-1.3333333,-145.5611,736.56264)"><rect
       style="fill:#0070c0;fill-opacity:1;stroke:none;stroke-width:8.74907398;stroke-miterlimit:4;stroke-dasharray:none;stroke-opacity:1"
       id="rect4535"
       width="284.1734"
       height="167.37964"
       x="109.17083"
       y="-552.422"
       transform="scale(1,-1)"
       rx="23.852327"
       ry="22.677166" /><g
       id="g4495"
       transform="translate(-140.01429,154.15715)"><g
         id="g4497"
         clip-path="url(#clipPath4501)"><g
           id="g4503"
           transform="translate(287.3076,306.8618)"><path
             d="m 0,0 c 1.543,-1.927 3.341,-3.37 5.396,-4.331 2.054,-0.962 4.205,-1.445 6.449,-1.445 4.168,0 7.726,1.605 10.673,4.812 2.945,3.205 4.869,7.698 5.77,13.468 0.388,2.485 0.383,4.77 -0.013,6.854 -0.396,2.084 -1.255,3.89 -2.583,5.413 -1.325,1.52 -3.164,2.705 -5.518,3.547 -2.354,0.842 -5.295,1.264 -8.821,1.264 h -0.602 c -1.123,0 -1.508,1.12 -1.158,3.366 0.212,1.364 0.596,2.666 1.151,3.908 0.555,1.242 1.036,2.145 1.445,2.706 h 1.684 c 1.924,0 3.777,0.321 5.561,0.962 1.786,0.642 3.392,1.581 4.832,2.825 1.435,1.244 2.681,2.807 3.737,4.693 1.056,1.882 1.778,4.066 2.167,6.552 0.676,4.331 0.343,7.857 -0.994,10.582 -1.339,2.725 -3.772,4.088 -7.299,4.088 -7.377,0 -12.026,-6.173 -13.954,-18.517 z m -5.121,46.538 c 1.389,8.898 4.589,15.792 9.603,20.681 5.013,4.89 11.927,7.337 20.747,7.337 3.849,0 7.062,-0.462 9.646,-1.383 2.579,-0.922 4.6,-2.223 6.063,-3.909 1.46,-1.683 2.408,-3.707 2.841,-6.07 0.429,-2.367 0.422,-4.991 -0.028,-7.879 -0.326,-2.085 -0.993,-4.169 -1.999,-6.252 -1.007,-2.085 -2.269,-4.01 -3.788,-5.773 -1.517,-1.764 -3.282,-3.306 -5.293,-4.63 -2.01,-1.323 -4.193,-2.344 -6.55,-3.066 2.662,-0.402 5.132,-1.143 7.408,-2.225 2.276,-1.082 4.213,-2.547 5.809,-4.389 1.595,-1.845 2.723,-4.129 3.378,-6.854 0.659,-2.726 0.705,-5.893 0.141,-9.501 -0.375,-2.406 -1.12,-4.991 -2.232,-7.759 -1.113,-2.764 -2.859,-5.332 -5.23,-7.693 -2.374,-2.367 -5.447,-4.332 -9.218,-5.893 -3.774,-1.566 -8.467,-2.347 -14.075,-2.347 -2.808,0 -5.495,0.24 -8.065,0.723 -2.571,0.48 -4.45,1.039 -5.631,1.684 -0.634,-4.571 -1.061,-8.46 -1.279,-11.665 -0.222,-3.205 -0.357,-5.873 -0.406,-7.998 -0.053,-2.123 -0.045,-3.748 0.02,-4.869 0.066,-1.125 0.068,-1.883 0.005,-2.285 -0.112,-0.723 -0.486,-1.303 -1.116,-1.744 -0.629,-0.44 -2.25,-1.063 -4.859,-1.863 -0.84,-0.243 -2.076,-0.583 -3.708,-1.024 -1.632,-0.441 -2.89,-0.66 -3.771,-0.66 -0.643,0 -1.11,0.199 -1.41,0.6 -0.296,0.402 -0.36,1.164 -0.184,2.285 z"
             style="fill:#ffffff;fill-opacity:1;fill-rule:nonzero;stroke:none"
             id="path4505"
             inkscape:connector-curvature="0" /></g><g
           id="g4507"
           transform="translate(345.1396,312.5127)"><path
             d="M 0,0 C -0.376,-2.407 0.276,-4.389 1.955,-5.953 3.635,-7.517 6.72,-8.3 11.211,-8.3 c 4.008,0 7.459,0.542 10.354,1.624 2.893,1.084 5.35,2.184 7.372,3.306 0.783,0.404 1.323,0.663 1.625,0.784 0.298,0.12 0.647,0.179 1.05,0.179 0.559,0 0.991,-0.201 1.288,-0.599 0.298,-0.404 0.661,-1.285 1.091,-2.645 -0.768,-0.805 -1.868,-1.826 -3.305,-3.071 -1.439,-1.242 -3.251,-2.462 -5.443,-3.666 -2.192,-1.203 -4.737,-2.224 -7.635,-3.066 -2.898,-0.842 -6.191,-1.264 -9.878,-1.264 -4.009,0 -7.41,0.422 -10.202,1.264 -2.799,0.842 -5.049,1.944 -6.76,3.307 -1.713,1.361 -2.892,2.925 -3.538,4.69 -0.648,1.762 -0.826,3.568 -0.539,5.411 0.902,5.773 4.9,9.821 11.999,12.147 -2.632,1.123 -4.357,2.785 -5.172,4.991 -0.822,2.204 -1.067,4.348 -0.742,6.434 0.313,2.002 1.04,3.967 2.183,5.892 1.143,1.924 2.738,3.667 4.787,5.23 2.047,1.565 4.589,2.827 7.627,3.789 3.035,0.961 6.637,1.443 10.806,1.443 3.608,0 6.67,-0.283 9.189,-0.842 2.517,-0.561 4.549,-1.282 6.094,-2.164 1.546,-0.883 2.721,-1.845 3.519,-2.887 0.8,-1.044 1.322,-2.044 1.576,-3.007 0.262,-0.882 -0.014,-1.742 -0.826,-2.585 -0.813,-0.841 -1.962,-1.664 -3.452,-2.464 -1.741,-0.885 -3.086,-1.545 -4.036,-1.985 -0.952,-0.442 -1.701,-0.621 -2.249,-0.541 -0.63,0.079 -1.147,0.362 -1.553,0.842 -0.407,0.481 -0.798,1.041 -1.179,1.684 -1.458,2.484 -2.978,4.167 -4.563,5.049 -1.587,0.88 -3.543,1.324 -5.868,1.324 -1.202,0 -2.407,-0.14 -3.613,-0.422 -1.207,-0.28 -2.317,-0.721 -3.332,-1.323 -1.017,-0.6 -1.885,-1.402 -2.6,-2.404 -0.72,-1.005 -1.19,-2.224 -1.416,-3.668 -0.299,-1.923 0.095,-3.628 1.187,-5.112 1.092,-1.481 3.14,-2.344 6.151,-2.584 1.837,0.481 3.335,0.842 4.498,1.082 1.158,0.241 2.092,0.441 2.799,0.602 0.704,0.158 1.243,0.258 1.61,0.299 0.368,0.041 0.671,0.061 0.91,0.061 0.401,0 0.799,-0.401 1.198,-1.202 0.395,-0.803 0.479,-1.925 0.255,-3.368 C 22.09,9.778 21.156,7.654 19.679,5.892 17.888,5.729 16.189,5.75 14.576,5.952 12.964,6.151 10.886,6.57 8.342,7.215 6.47,7.052 4.705,6.392 3.04,5.23 1.374,4.066 0.362,2.324 0,0"
             style="fill:#ffffff;fill-opacity:1;fill-rule:nonzero;stroke:none"
             id="path4509"
             inkscape:connector-curvature="0" /></g><g
           id="g4511"
           transform="translate(415.4844,348.8286)"><path
             d="m 0,0 c 3.847,0 7.069,0.1 9.669,0.301 2.595,0.2 4.728,0.4 6.405,0.602 1.674,0.199 2.988,0.399 3.945,0.6 0.949,0.201 1.747,0.301 2.392,0.301 0.959,0 1.383,-0.359 1.27,-1.082 -0.088,-0.561 -0.324,-1.443 -0.71,-2.646 -0.392,-1.202 -1.075,-2.885 -2.053,-5.05 -0.615,-1.365 -1.067,-2.224 -1.366,-2.586 -0.296,-0.361 -1.006,-0.542 -2.13,-0.542 H 15.32 10.929 c -1.683,0 -3.406,0.02 -5.159,0.062 -1.757,0.037 -3.202,0.059 -4.323,0.059 -0.981,-3.207 -1.877,-6.636 -2.685,-10.282 -0.811,-3.648 -1.499,-7.275 -2.062,-10.883 -0.714,-4.569 -0.836,-8.039 -0.36,-10.402 0.472,-2.365 1.828,-3.548 4.073,-3.548 1.204,0 2.316,0.181 3.333,0.541 1.022,0.361 2.338,0.862 3.966,1.506 0.697,-0.644 1.041,-1.407 1.023,-2.287 -0.018,-0.883 -0.12,-1.644 -0.298,-2.287 -1.816,-1.362 -4.133,-2.604 -6.954,-3.727 -2.821,-1.121 -5.876,-1.684 -9.163,-1.684 -4.329,0 -7.089,1.704 -8.279,5.113 -1.195,3.406 -1.356,7.877 -0.494,13.409 0.701,4.489 1.828,8.879 3.379,13.168 1.551,4.287 3.064,8.074 4.54,11.363 h -7.695 c -2.567,0 -4.713,-0.643 -6.435,-1.923 -1.724,-1.284 -3.327,-3.087 -4.814,-5.413 -1.084,0.242 -1.875,0.7 -2.369,1.384 -0.494,0.681 -0.686,1.384 -0.573,2.104 0.199,1.281 0.684,2.725 1.458,4.329 0.77,1.604 1.766,3.107 2.989,4.511 1.22,1.401 2.608,2.584 4.161,3.547 1.551,0.963 3.211,1.442 4.977,1.442 z"
             style="fill:#ffffff;fill-opacity:1;fill-rule:nonzero;stroke:none"
             id="path4513"
             inkscape:connector-curvature="0" /></g><g
           id="g4515"
           transform="translate(471.3896,318.7642)"><path
             d="m 0,0 c 0.098,2.167 0.069,4.69 -0.081,7.576 -0.15,2.89 -0.565,5.612 -1.249,8.177 -0.681,2.567 -1.684,4.752 -3.005,6.554 -1.322,1.806 -3.104,2.708 -5.349,2.708 -2.965,0 -5.581,-1.585 -7.837,-4.751 -2.261,-3.168 -3.857,-7.758 -4.796,-13.771 -1.051,-6.731 -1.034,-12.143 0.052,-16.234 1.084,-4.089 3.389,-6.133 6.92,-6.133 2.804,0 5.498,1.463 8.081,4.391 C -4.685,-8.558 -2.262,-4.73 0,0 M 26.688,29.223 C 26.263,26.497 24.598,22.628 21.691,17.619 18.782,12.607 15.056,6.573 10.508,-0.482 c 0.17,-3.526 0.445,-6.252 0.826,-8.176 0.381,-1.924 0.838,-3.366 1.369,-4.327 0.53,-0.963 1.122,-1.547 1.773,-1.744 0.647,-0.204 1.415,-0.303 2.296,-0.303 0.644,0 1.59,0.159 2.842,0.481 1.254,0.321 2.439,0.721 3.557,1.204 0.634,-0.564 0.989,-1.222 1.072,-1.986 0.081,-0.761 0.043,-1.382 -0.11,-1.863 -0.848,-0.804 -1.847,-1.564 -3.004,-2.285 -1.157,-0.721 -2.373,-1.342 -3.659,-1.864 -1.283,-0.521 -2.608,-0.921 -3.973,-1.202 -1.365,-0.28 -2.653,-0.422 -3.855,-0.422 -3.207,0 -5.554,0.765 -7.038,2.287 -1.49,1.52 -2.302,4.406 -2.439,8.658 -2.145,-2.969 -4.769,-5.534 -7.874,-7.697 -3.104,-2.166 -6.421,-3.248 -9.947,-3.248 -4.169,0 -7.595,0.781 -10.278,2.346 -2.682,1.562 -4.773,3.585 -6.266,6.072 -1.496,2.485 -2.417,5.31 -2.767,8.478 -0.346,3.168 -0.27,6.354 0.231,9.561 0.678,4.329 1.906,8.217 3.685,11.666 1.78,3.445 3.943,6.374 6.484,8.778 2.539,2.404 5.335,4.27 8.388,5.592 3.051,1.322 6.182,1.986 9.39,1.986 2.886,0 5.341,-0.323 7.364,-0.964 2.023,-0.644 3.706,-1.685 5.044,-3.127 1.338,-1.442 2.39,-3.288 3.164,-5.531 0.774,-2.246 1.348,-4.972 1.731,-8.179 0.93,1.844 1.791,3.91 2.59,6.195 0.795,2.284 1.418,4.348 1.869,6.191 0.385,1.445 1.066,2.346 2.045,2.708 0.977,0.361 2.753,0.821 5.328,1.382 1.908,0.402 3.13,0.661 3.67,0.783 0.539,0.12 1.007,0.179 1.411,0.179 0.64,0 1.032,-0.179 1.178,-0.541 0.141,-0.36 0.171,-0.823 0.083,-1.383"
             style="fill:#ffffff;fill-opacity:1;fill-rule:nonzero;stroke:none"
             id="path4517"
             inkscape:connector-curvature="0" /></g><g
           id="g4519"
           transform="translate(331.9375,256.9727)"><path
             d="m 0,0 h 20.344 c 2.718,0 4.077,1.357 4.077,4.078 v 8.152 c 0,2.719 -1.332,4.079 -3.995,4.079 H 0 Z M -8.196,-8.154 V 0 h 0.041 v 32.699 c 0,2.662 1.359,3.994 4.077,3.994 C -1.36,36.693 0,35.334 0,32.617 l -0.042,-8.154 h 20.427 c 8.128,0 12.192,-4.08 12.192,-12.233 V 3.994 c 0,-8.099 -4.078,-12.148 -12.233,-12.148 z"
             style="fill:#ffffff;fill-opacity:1;fill-rule:nonzero;stroke:none"
             id="path4521"
             inkscape:connector-curvature="0" /></g><g
           id="g4523"
           transform="translate(403.085,269.2031)"><path
             d="m 0,0 c -0.028,2.664 -1.401,3.996 -4.119,3.996 h -16.308 c -2.691,0 -4.037,-1.332 -4.037,-3.996 v -8.236 c 0,-2.662 1.346,-3.994 4.037,-3.994 h 16.308 c 2.718,0 4.091,1.357 4.119,4.078 z m -32.619,3.996 c 0,5.436 2.719,8.154 8.155,8.154 H 0 c 5.436,0 8.154,-2.691 8.154,-8.072 V -12.23 c 0,-5.436 -2.718,-8.155 -8.154,-8.155 h -24.423 c -5.437,0 -8.168,2.719 -8.196,8.155 z"
             style="fill:#ffffff;fill-opacity:1;fill-rule:nonzero;stroke:none"
             id="path4525"
             inkscape:connector-curvature="0" /></g><g
           id="g4527"
           transform="translate(424.626,281.4355)"><path
             d="m 0,0 v 8.236 c 0,2.662 1.359,3.994 4.078,3.994 2.717,0 4.076,-1.343 4.076,-4.035 V 0 h 5.097 c 2.718,0 4.076,-1.361 4.076,-4.08 0,-2.715 -1.358,-4.074 -4.076,-4.074 H 8.154 v -12.231 c 0,-2.72 1.358,-4.078 4.078,-4.078 2.717,0 4.076,-1.359 4.076,-4.078 0,-2.717 -1.359,-4.076 -4.076,-4.076 C 4.078,-32.617 0,-28.541 0,-20.385 v 12.231 h -4.076 c -2.718,0 -4.077,1.359 -4.077,4.074 0,2.719 1.359,4.08 4.077,4.08 z"
             style="fill:#ffffff;fill-opacity:1;fill-rule:nonzero;stroke:none"
             id="path4529"
             inkscape:connector-curvature="0" /></g><g
           id="g4531"
           transform="translate(457.7783,281.5156)"><path
             d="m 0,0 30.575,-0.041 c 2.716,0 4.079,-1.344 4.079,-4.035 0,-2.719 -1.363,-4.076 -4.079,-4.076 H 0.037 c -1.359,-0.055 -2.04,-0.735 -2.04,-2.039 0,-1.36 0.681,-2.039 2.04,-2.039 H 24.5 c 6.794,-0.028 10.204,-3.452 10.235,-10.274 C 34.704,-29.303 31.294,-32.697 24.5,-32.697 H -6.079 c -2.718,0 -4.075,1.359 -4.075,4.076 0,2.719 1.357,4.078 4.075,4.078 H 24.5 c 1.357,0 2.038,0.68 2.038,2.039 0,1.412 -0.681,2.119 -2.038,2.119 H 0.037 c -6.795,0 -10.191,3.397 -10.191,10.194 C -10.154,-3.398 -6.771,0 0,0"
             style="fill:#ffffff;fill-opacity:1;fill-rule:nonzero;stroke:none"
             id="path4533"
             inkscape:connector-curvature="0" /></g></g></g></g></svg>